<?xml version="1.0" encoding="utf-8"?>
<!-- Generator: Adobe Illustrator 19.0.0, SVG Export Plug-In . SVG Version: 6.00 Build 0)  -->
<svg version="1.1" id="Layer_1" xmlns="http://www.w3.org/2000/svg" xmlns:xlink="http://www.w3.org/1999/xlink" x="0px" y="0px"
	 viewBox="0 0 350 130" style="enable-background:new 0 0 350 130;" xml:space="preserve">
<style type="text/css">
	.st0{fill:#FFFFFF;}
</style>
<path id="XMLID_4_" class="st0" d="M219.1,108.6c-0.5,4.5-1.1,8.7-2.4,13c-0.4,1.3-0.8,2.5-1.7,3.6c-0.4,0.5-0.9,1-1.5,1
	c-0.6,0-0.9-0.6-1-1.1c-0.4-1.6-0.3-3.4,0.2-5.1C213.8,115.7,216.1,112.1,219.1,108.6 M238.9,95.2c0.5-1.2,1.3-2,2.6-2.3
	c1.6-0.3,3.5,0.9,3.9,2.4c0.1,0.3,0,0.8-0.1,1.1c-0.3,2.2-0.7,4.4-1.9,6.4c-0.7,1.1-1.5,2-2.8,2c-1.2,0-1.8-0.7-2.2-1.7
	C237.6,100.7,237.6,98,238.9,95.2 M268.2,93.2c0.1-0.1,0.3-0.3,0.3-0.5c0.6-1.5-0.1-3.5-1.3-4.2c-0.2-0.1-0.4-0.2-0.3-0.5
	c0.4-1.3,2-2.9,3.3-3.1c1.2-0.2,1.9,0.3,2.4,1.2c0.9,1.6,1.1,3.5,1.1,5.6c0,2-0.3,4.2-1.2,6.4c-0.3,0.7-0.6,1.3-1.1,1.9
	c-1.3,1.6-3.2,1.8-4.2,0.3C266,98.4,266.4,94.8,268.2,93.2 M176.6,108.5c-0.1,2.3-0.3,4.5,0.1,6.7c0.4,2.6,2.3,2.9,4.5,2.1
	c0.5-0.2,0.7-0.6,0.8-1c1.1-4.5,3-8.8,5.4-12.9c0.6-1,1.2-1.9,2-2.8c0.2-0.3,0.5-0.5,0.9-0.4c0.3,0.1,0.4,0.4,0.4,0.8
	c0,0.9,0,1.7-0.1,2.6c-0.3,3-0.7,6-0.5,9c0.1,1.4,0.2,2.7,0.8,3.9c0.7,1.5,1.9,2.1,3.6,1.8c2.4-0.4,4.5-1.6,6.5-3.2
	c3-2.4,5.6-5.3,7.7-8.6c0.4-0.5,0.5-0.6,0.8-0.1c0.7,0.9,1.8,1.3,3.1,1c2.3-0.4,4-1.9,5.3-3.9c0.4-0.5,0.7-1.1,1-1.7
	c0.3,0.8,0.1,1.5,0.2,2.2c0.1,1-0.2,1.6-1,2.4c-3.1,3-5.8,6.4-7.5,10.4c-1.2,2.8-1.8,5.7-1.1,8.5c0.6,2.2,2.2,3.1,4.5,2.5
	c1.9-0.4,3.4-1.6,4.6-3.2c2.1-2.6,3.2-5.5,4.1-8.5c1.1-3.9,1.7-7.8,1.6-11.7c0-0.4-0.1-0.9,0.4-1.2c2.3-1.9,4.6-3.5,7.1-4.8
	c0.4-0.2,0.7-0.2,0.6,0.4c-0.2,1.2-0.3,2.4-0.1,3.5c0.4,2.5,1.3,4.6,3.5,5.6c3.7,1.8,8.5-0.6,10.4-5.2c0.1-0.2,0.1-0.5,0.4-0.7
	c0.3,0.8,0.7,1.6,1.1,2.3c1.6,2.6,4.4,3,7.4,1.2c1.6-1,2.9-2.4,4.1-3.9c0.8-1,1.5-2.2,2.3-3.4c0.1,0.3,0.2,0.4,0.2,0.6
	c1.6,4.6,6.2,5.6,10.5,3.4c2.7-1.4,4.4-3.7,5.5-6.5c0.1-0.4,0.2-0.8,0.8-0.6c2.6,0.8,5-0.3,7.4-2c0.9-0.7,1.8-1.6,2.6-2.5
	c0.2,0.3,0.1,0.6,0.1,0.9c-0.2,1.9-0.4,3.8-0.6,5.6c0,0.4-0.1,0.8,0.3,1.1c1.3,0.9,3.4,0.7,4.8-0.6c0.8-0.7,1.4-1.5,1.9-2.4
	c1.6-2.6,2.8-5.3,4-8.1c0.6-1.3,1.1-2.7,1.9-3.9c0.3-0.6,0.7-1.4,1.4-1.3c0.7,0.1,0.6,0.9,0.6,1.5c0.1,3.1,0,6.3-0.6,9.6
	c-0.1,0.4-0.3,1-0.1,1.3c0.3,0.8,1.1,1,1.9,1.1c0.7,0.1,1.3-0.2,1.8-0.9c0.6-0.9,1.1-1.9,1.5-2.9c1.2-2.7,2.2-5.4,3.5-8.1
	c0.4-0.8,0.8-1.6,1.5-2.3c0.7-0.7,1.2-0.5,1.3,0.3c0.1,0.9,0,1.7-0.1,2.6c-0.2,2-0.5,4.1-0.4,6.1c0.2,2.9,1.7,4.5,4.1,4.3
	c1.5-0.1,3.1-0.5,4.6-1.3c4.2-2,7.4-5.2,10.2-9c1.1-1.4,2.1-2.9,2.7-4.6c0.2-0.4,0.4-0.9-0.1-1.1c-0.5-0.2-0.8,0.1-1.1,0.6
	c-1.4,2.3-3,4.5-4.9,6.4c-1.9,2-3.9,3.9-6.4,4.9c-2.3,1-3.8,0.2-4-2.2c-0.1-1.5-0.1-3.1,0.1-4.7c0.1-1.3,0.2-2.7,0.2-4
	c0-2.8-2-3.9-4.6-2.8c-0.9,0.4-1.7,1-2.3,1.7c-1.7,1.9-2.7,4.2-3.7,6.4c-0.4,0.8-0.7,1.7-1.1,2.5c0.1-0.9,0.1-1.7,0.1-2.5
	c0.1-1.8,0-3.6-0.6-5.2c-0.7-1.8-2.4-2.2-4.2-1.2c-1,0.6-1.8,1.5-2.4,2.5c-1.2,1.7-2.2,3.5-3.1,5.4c-1,2.1-2.1,4.2-3.1,6.2
	c0-1.6,0.3-3.2,0.4-4.8c0.1-2.2,0.2-4.5-0.5-6.5c-0.7-2.2-2.5-2.6-4.6-1.1c-0.6,0.4-0.8,0.8-0.6,1.4c0.5,1.6,0.6,3.3,0.6,5
	c0,0.4,0,0.7-0.2,1.1c-1.3,1.9-2.8,3.5-4.8,4.5c-1.4,0.6-2.7,0.9-4,0.4c-0.7-0.2-0.9-0.6-0.8-1.4c0.3-1.7,0.1-3.3-0.4-4.8
	c-0.8-2.4-2.2-4.1-4.9-4.4c-3.2-0.3-7.5,2.1-8.1,6.1c0,0.3-0.2,0.6-0.5,0.7c-1.7,0.7-2.7,2.1-3.2,3.8c-0.5,1.9-1.4,3.6-2.4,5.3
	c-0.9,1.6-1.9,3.1-3.3,4.3c-1.7,1.5-3.3,1.4-4.3-0.3c-0.4-0.7-0.7-1.4-0.8-2.2c-1.1-4.7-1-9.6-0.4-14.7c0.3-3,0.9-6,1.8-8.9
	c0.1-0.3,0.2-0.6-0.1-0.9c-1.4-1.3-3.6-0.8-4.8,1.1c-0.7,1.1-1,2.3-1.3,3.5c-0.7,3.7-0.8,7.3-0.8,11c0,0.4,0,0.8,0,1.4
	c-0.6-0.4-1-0.8-1.5-1.1c-3.4-2.1-8-0.3-10.2,3.8c-0.2,0.4-0.3,0.9-0.8,1.1c-2.9,1.2-5.5,2.8-8.1,4.7c-0.4,0.3-0.5,0.2-0.6-0.3
	c0-0.5-0.1-1-0.2-1.5c-0.2-1.3-0.4-2.6-1.1-3.7c-0.6-1.1-1.4-1.2-2.6-0.4c-0.6,0.4-1.1,0.9-1.7,1.3c-0.4,0.3-0.6,0.6-0.6,1.2
	c0,1.6-0.4,3.1-1.2,4.7c-0.5,0.9-1.1,1.8-2,2.3c-0.7,0.4-1.3,0.3-1.6-0.4c-0.2-0.4-0.2-0.7-0.2-1.2c-0.1-1.7,0.4-3.5,1-5.2
	c0.5-1.5,1.2-2.9,2.4-4c1-1,2.1-1.8,3.4-1.1c0.2,0.1,0.4,0,0.5-0.1c0.5-0.4,1-0.7,1.5-1.1c0.6-0.5,0.6-0.9,0-1.2
	c-0.9-0.4-1.8-0.4-2.8-0.2c-5.5,1.2-10.6,7.3-10.7,13c0,0.4-0.1,0.8-0.4,1.2c-1.3,2-2.8,3.9-4.4,5.6c-1.6,1.7-3.4,3.3-5.4,4.5
	c-1.1,0.6-1.8,0.4-2.2-0.7c-0.3-0.9-0.4-1.8-0.4-2.7c0.1-2.8,0.2-5.5,0.2-8.3c0-1.1-0.2-2.2-0.6-3.2c-0.6-1.2-1.5-1.7-2.9-1.6
	c-1.9,0.2-3.3,1.3-4.6,2.7c-2.1,2.3-3.5,5-4.9,7.7c-0.2,0.4-0.4,0.8-0.6,1.3c-0.3-0.9-0.2-1.8-0.2-2.6c0.1-2.2,0.2-4.4,0.2-6.6
	c0-1.5-0.8-2.3-2-2.2c-1.2,0.1-2.2,0.6-3.2,1.4c-0.4,0.3-0.5,0.6-0.4,1C177.1,102.8,176.7,105.7,176.6,108.5 M166.2,115.1
	c-0.1,2.1-0.1,4.2,0.3,6.2c0.4,1.8,1.7,2.3,3.5,1.4c0.8-0.4,1.2-0.9,1.1-1.8c0-3.5,0-7,0-10.5c0.1,0,0.1,0,0.2,0c0-1.1,0-2.1,0-3.2
	c0-0.1,0-0.1,0-0.2c-0.1-1.6-1-2.4-2.5-2.3c-0.5,0-1,0.2-1.5,0.3c-0.7,0.1-1,0.5-1,1.3C166.4,109.2,166.4,112.1,166.2,115.1
	 M128.6,113.4c-0.2,4.3-0.3,8.7,0.1,12.9c0.2,2.6,1.3,3.7,3.4,3.7c0.9,0,1.9-0.3,2.9-0.5c0.4-0.1,0.6-0.3,0.5-0.8
	c-0.5-2.3-0.9-4.6-1.1-6.9c-0.2-1.9-0.4-3.7-0.2-5.7c0.4-3.1,2.2-5.5,4.3-7.8c1.1-1.2,1.1-1.2,1.5,0.2c1.1,4,3.2,7.4,5.8,10.3
	c2.3,2.7,5,5,8.4,6.5c0.7,0.3,1.5,0.5,2.4,0.4c2.2-0.4,3.4-2,4.4-4c0.4-0.7,0.3-1-0.4-1.2c-8.4-2.1-13.9-7.6-17-15.7
	c-0.2-0.6-0.1-1,0.5-1.5c4-3.4,8-6.8,11.9-10.5c1.6-1.5,2.9-3.1,3.8-5.1c0.6-1.3,0.4-2.3-0.3-3.2c-0.7-0.9-1.7-1.3-2.8-1.5
	c-0.5-0.1-0.8,0.1-1,0.6c-2.6,4.7-6.1,8.8-9.8,12.6c-2.3,2.3-4.8,4.3-7,6.7c-1.5,1.6-2.8,3.2-4.4,5c0.1-0.7,0.1-1.3,0.1-1.8
	c0.2-3.3,0.5-6.6,0.7-9.8c0.1-2.6,0.5-5.1,0.2-7.6c-0.3-2.7-2.2-4.1-4.8-3.6c-0.6,0.1-0.8,0.4-0.7,0.9c0.1,0.9,0.3,1.9,0.3,2.9
	c0.1,3.1-0.1,6.3-0.4,9.5C129.5,103.5,128.9,108.5,128.6,113.4 M47,38.3c-0.2,5.7-0.6,11.4-1.2,17.2c-0.3,2.8-0.5,5.7-0.7,8.5
	c-0.1,0.9-0.5,1.3-1.3,1.6C36.4,68,29,69.1,21.6,68.7c-1-0.1-1-0.4-0.6-1.3c4.4-9.8,9.4-19.2,15.9-27.8c2-2.6,4.1-5.2,6.7-7.2
	c1.7-1.4,2.4-1.2,2.9,0.7C47,34.6,47.1,36.4,47,38.3 M58,85.3C54.4,80,53.7,73.6,53.8,67c0.2-7.4,0-14.7,0.4-22.2
	c0-2.9,0-5.7-0.3-8.5c-0.3-2.6-0.6-5.2-1.8-7.5c-1.6-3-4.2-4.8-8.7-1.8c-4.7,3.1-8.6,7.1-12.2,11.5C24.1,47,18.1,56.2,13,66
	c-0.5,1-1,1.3-1.9,1C8,66.1,5,65.1,2.1,63.8c-1.2-0.6-1.3-0.5-1.5,1c0,0.1-0.1,0.3-0.1,0.4c-0.6,4.6,0.6,6.6,4.6,7.9
	c0.8,0.3,1.7,0.4,2.6,0.6c1.5,0.3,1.5,0.3,0.8,2c-2.8,7.1-5.4,14.2-7.2,21.5c-0.7,2.9-1.4,5.8-1.3,8.7c0.1,3.6,1.6,5.4,5,5.9
	c1.3,0.2,2.6,0.2,4,0.1c1.8-0.1,1.9-0.2,1.7-1.9c-0.4-3.6-0.2-7.3,0.5-11.1c1.5-7.8,3.7-15.5,6.5-23.1c0.3-0.8,0.6-1.1,1.4-1.1
	c1.6,0,3.2-0.1,4.8-0.2c6.5-0.5,13-1.4,19.5-4c0.9-0.4,1.2-0.2,1.2,0.8c-0.1,3.2-0.4,6.4-0.1,9.5c0.3,2.9,0.9,5.8,2.5,8
	c2.3,3.1,6.4,3.4,9.9,0.7C59.3,87.5,59.3,87.3,58,85.3 M245.9,30.5c0,3-0.5,6.4-1.9,9.8c-0.4,1-0.9,1.9-1.5,2.7
	c-2.1,2.7-5.2,2.9-6.7,0.4c-1.9-3.1-1.2-7.5,1.6-10.8c0.2-0.2,0.4-0.4,0.5-0.7c0.9-2.2-0.1-5.4-1.9-6.4c-0.3-0.2-0.6-0.2-0.5-0.8
	c0.5-2,3.1-4.4,5-4.8c1.8-0.4,2.9,0.4,3.7,1.8C245.6,24.1,245.9,27.1,245.9,30.5 M204.9,32.3c-0.1-2.2,0.2-4.3,0.5-6.5
	c0.6-5.1,1.5-10.1,3.2-15.2c0.4-1.3,0.9-2.5,1.7-3.6c0.5-0.7,1.1-1.3,1.9-1.2c0.8,0.1,0.9,0.9,1,1.7c0.1,2.4-0.5,4.8-1.1,7.1
	c-1.6,5.7-3.7,11.3-6.4,16.8C205.4,31.7,205.4,32.1,204.9,32.3 M173.9,42.7c0,3.4-0.5,6.8-1.9,10.2c-0.4,1-0.9,2-1.6,2.8
	c-2.1,2.6-5.1,2.8-6.6,0.4c-2-3.1-1.3-8.6,1.4-10.9c0.2-0.2,0.4-0.4,0.5-0.6c0.9-2.1-0.1-5.5-1.9-6.5c-0.3-0.2-0.7-0.3-0.5-0.9
	c0.7-2.1,3.1-4.4,5-4.8c1.7-0.3,2.8,0.4,3.6,1.7C173.6,36.7,173.9,39.6,173.9,42.7 M126.6,35.9c-0.1,2-0.5,4-1.3,6
	c-0.2,0.6-0.5,0.5-0.9,0.3c-0.9-0.5-1.1-1.4-1.1-2.2c0.1-1.7,0.6-3.1,1.6-4.4c0.3-0.4,0.7-0.8,1.2-0.7
	C126.5,35,126.6,35.5,126.6,35.9 M71.6,71.3c0,2.5-1.6,5-3.6,6.2c-0.7,0.4-1.6,0.7-2.2,0.3c-0.7-0.5-0.7-1.4-0.4-2.3
	c0.4-1.6,1.5-2.9,2.6-4.2c0.4-0.5,0.9-0.9,1.3-1.4c1.5-1.6,2-1.5,2.3,0.5C71.5,70.8,71.5,71.2,71.6,71.3 M284.6,34.6
	c-0.9,7.6-1.8,14.8-4.3,22c-0.4,1.3-1,2.5-1.8,3.6c-0.6,0.9-1.4,1.6-2.4,1.6c-1-0.1-1.3-0.9-1.5-1.7c-0.7-2.8-0.3-5.8,0.5-8.8
	C276.8,45.1,280.2,39.9,284.6,34.6 M321,29.2c-0.6,3.9-1.3,7.4-2.3,11c-1,3.8-2.1,7.6-3.9,11.3c-0.3,0.7-0.7,1.3-1.2,2
	c-0.5,0.7-1.2,1.3-2,1.2c-0.9-0.1-1.3-0.7-1.5-1.6c-0.5-1.9-0.1-4,0.4-6c1.1-4.4,3.3-8.4,6-12.2C317.8,33,319.2,31.2,321,29.2
	 M349.9,5.3c-0.3-0.8-0.8-1.2-1.7-0.9c-0.4,0.2-0.8,0.4-1.2,0.6c-5.7,3.1-11.1,6.9-16.3,10.9c-0.3,0.3-0.7,0.8-1.1,0.6
	c-0.4-0.2-0.2-0.7-0.2-1.1c0.4-3.3,0.2-6.4,0.2-9.6c0-1-0.2-1.9-0.4-2.8c-0.5-2-1.9-2.8-3.9-2.3c-0.8,0.2-1.6,0.5-2.4,0.9
	c-1.1,0.5-1.4,1.2-1.5,2.3c-0.1,3.6-0.3,7.3-1.5,11c-0.5,1.5-1,2.9-2.1,4.1c-1.6,1.7-3.5,1.6-4.2-0.3c-0.4-0.9-0.5-1.9-0.6-3
	c-0.2-3,0.3-6,0.5-9c0.1-2-1-3.1-2.9-3c-1.2,0.1-2.4,0.3-3.6,0.8c-0.7,0.3-1,0.7-1,1.5c0.1,2.6,0,5.3,0,7.9c0,0.7-0.1,1.2-0.9,1.6
	c-4.1,1.8-7.9,4.1-11.6,6.8c-0.5,0.4-0.9,0.6-0.9-0.3c0-0.8-0.1-1.6-0.2-2.3c-0.3-2.1-0.7-4.1-1.7-5.8c-1-1.6-2.1-1.8-3.9-0.6
	c-0.9,0.6-1.8,1.4-2.7,2c-0.7,0.5-0.9,1.1-0.9,1.9c0,2.9-0.8,5.7-2.5,8.3c-0.6,1-1.4,1.8-2.4,2.4c-1.1,0.6-2,0.4-2.4-0.6
	c-0.3-0.6-0.4-1.2-0.4-1.9c0-4.1,1.2-8,3.4-11.7c0.6-1,1.3-2,2.2-2.7c1.5-1.3,3.1-2.3,4.9-1.4c0.3,0.2,0.6,0,0.9-0.2
	c0.8-0.5,1.5-1.1,2.3-1.7c1-0.9,1-1.5-0.1-2c-1.4-0.6-2.9-0.6-4.5-0.2c-7.8,1.9-14.8,9.7-16.1,17.9c-0.1,0.7-0.3,1.3-0.8,1.8
	c-1.8,2.4-3.9,4.4-6.5,5.6c-2.2,1-4.2,1.4-6.3,0.6c-1-0.4-1.3-1-1.1-2.1c0.4-2.6,0.1-5-0.6-7.3c-1.1-3.6-3.1-6.2-6.9-6.8
	c-5.3-0.9-12.4,3.4-13.1,9.5c-0.1,0.6-0.5,0.9-1,1.1c-1.4,0.6-2.5,1.6-3.4,3c-0.8,1.2-1.1,2.6-1.8,3.7c-2.5,4-5.2,7.8-8.3,11.4
	c-1.7,2-3.4,3.9-5.6,5.2c-2.6,1.6-4.6,1.2-6-1c-1.1-1.9-1.5-4.1-1.9-6.4c-0.3-1.6,0.1-2.9,0.8-4.4c3-5.9,5.8-11.9,8.1-18.1
	c1.4-3.7,2.5-7.4,2.8-11.2c0.2-2.2-0.3-4.2-2.2-5.2c-1.9-1-3.8-0.1-5.7,1.2c-0.1,0.1-0.1,0.1-0.2,0.2c-2.3,1.8-4,4.2-5.4,6.7
	c-4.4,7.9-6.4,16.1-6.8,24.5c0,0.8-0.1,1.5-0.6,2.2c-1.9,2.5-4,4.6-6.8,5.9c-2.2,1-4.2,1.3-6.3,0.6c-0.9-0.4-1.3-1-1.1-2.1
	c0.4-2.6,0.1-5-0.5-7.3c-1.2-4.2-3.7-6.9-8.3-7c-4.4-0.1-10.8,3.4-11.7,9.5c-0.1,0.4-0.3,0.8-0.7,1c-3.9,1.7-5.1,5-5.6,8.7
	c-0.1,0.7-0.1,1.4-0.5,2.1c-2.1,4-4.4,7.9-7.3,11.4c-1.7,2.1-3.5,4.1-5.9,5.2c-2.5,1.2-4.2,0.5-4.7-2c-0.2-0.8-0.2-1.7,0-2.6
	c0.5-3.2,2-6.1,3.5-9c1.1-2.1,2.3-4.2,2.9-6.5c0.4-1.6,0.1-2.3-1.3-2.8c-1.1-0.4-2.3-0.3-3.5-0.3c-3,0.1-6.1,0.5-9.1,0.5
	c-0.9,0-1.1-0.3-0.6-1.2c0.9-1.7,1.4-3.5,1.6-5.3c0.3-2.1-1-4.6-3.9-3.5c-0.8,0.3-1.5,0.5-2.2,1c-2.8,1.7-4.4,4.2-4.9,7.3
	c-0.5,3.1,0.6,5.3,3.2,6.3c0.6,0.3,0.6,0.7,0.3,1.3c-1.9,4.3-3.9,8.6-6.6,12.5c-2.1,3.1-4.4,6.1-7.8,7.9c-3.6,2-6.5,1.2-8.1-2
	c-0.9-1.8-1.2-3.9-1.1-6.1c0.2-5.7,1-11.4,1.8-17.1c0.2-1.4,0.7-1.8,2-2c2.2-0.3,4.4-0.9,6.6-1.7c1-0.4,2-0.8,2.4-2.1
	c0.5-1.3,0.4-1.5-0.9-1.3c-2.5,0.4-5,0.9-7.5,1.3c-1.6,0.3-1.6,0.2-1.4-1.5c0.5-3.3,1.1-6.7,0.9-9.9c-0.2-2.7-1.4-3.9-4-4
	c-0.6,0-1.3,0-1.9,0.1c-1.9,0.2-1.9,0.3-2,2.2c-0.2,4.4-1,8.9-1.7,13.3c-0.2,1.1-0.7,1.5-1.6,1.6c-1.7,0.1-3.3,0.2-5,0.2
	c-0.5,0-1,0-1.2,0.7c-0.6,2.1-0.3,4.2,2.5,3.7c1.2-0.2,2.4-0.4,3.6-0.6c0.5-0.1,0.9-0.1,0.8,0.6c-0.3,2.3-0.6,4.7-1,7
	c-0.1,0.5-0.3,0.8-0.8,1C86.6,54,83.4,56,80.2,58c-4.2,2.7-4.2,2.7-7.5,0c-1.1-0.9-2.1-1.9-2.4-3.4c-0.4-1.5,0-2.1,1.6-2.4
	c1.6-0.3,3.1-0.8,4.4-2c0.8-0.7,1.4-1.6,1.2-2.5c-0.1-0.8-1.1-0.8-1.7-0.9c-2.9-0.2-5.7,0.6-8.4,2.2c-5.2,3.2-6.7,9.1-3.4,13.2
	c1,1.3,2.4,2.3,3.7,3.3c1.1,0.9,1.1,0.9-0.1,2c-2.1,2.1-4.2,4.2-5.6,6.9c-0.6,1.2-1,2.4-0.8,3.6c0.4,2.1,1.9,3.2,4.5,3.2
	c4.2,0,8-1.7,11.4-4.8c4.6-4.2,5.4-9.6,2-13.7c-0.6-0.7-0.2-0.9,0.4-1.3c2.8-1.9,5.6-3.6,8.6-5.1c2.7-1.4,2.8-1.3,2.6,1.7
	c-0.3,3.6,0.1,6.9,1.2,10.1c2,5.4,6.6,7.7,12.5,6.3c4.3-1,7.8-3.6,10.9-7.1c4.6-5.2,7.7-11.2,9.6-17.7c0.2-0.8,0.5-1.2,1.4-1.1
	c2,0.1,4.1,0,6.2-0.3c0.6-0.1,0.8,0,0.5,0.7c-0.6,1-1.1,2-1.6,3c-1.7,3-3.1,6.1-3.6,9.4c-0.9,5.4,1.7,9.2,6.7,9.6
	c3.6,0.3,6.9-1.1,9.9-3.6c3.2-2.6,5.8-5.8,8.1-9.2c1-1.5,1.9-3,2.9-4.5c0.5,0.1,0.4,0.6,0.6,0.9c2.8,6.4,9.6,7.6,15.8,4.4
	c4.2-2.1,6.8-5.8,8.6-10.2c0.3-0.6,0.4-1.1,1.2-0.9c3.4,1,6.7-0.1,9.9-2.2c2-1.3,3.7-2.9,5.3-4.7c0.3,0.2,0.2,0.5,0.2,0.7
	c0.4,3.3,1,6.5,2.5,9.3c2.7,5.1,7.3,5.9,12.8,2.5c3.8-2.4,6.9-5.5,9.8-9c1.8-2.1,3.3-4.4,5-6.7c0.1,0.6,0.2,1.1,0.3,1.6
	c1.8,8.4,9.8,10.5,17.1,6.5c3.9-2.1,6.3-5.6,7.9-9.7c0.4-1,0.7-1.2,1.6-1c1.5,0.4,3.1,0.5,4.8,0c3.6-1,6.6-3.1,9.3-6
	c0.7-0.8,1-0.7,1.3,0.1c1,2.7,2.9,3.7,5.8,3.2c2.4-0.4,4.4-1.8,6.2-3.7c1.3-1.4,2.3-3.1,3.3-4.9c0.5,1.2,0.2,2.5,0.4,3.6
	c0.2,1.4-0.3,2.3-1.4,3.4c-4.8,4.7-9,9.9-11.6,16.1c-1.8,4.4-2.9,8.8-1.7,13.2c0.9,3.3,3.5,4.6,7,3.8c2.9-0.7,5.2-2.5,7.2-4.9
	c3.2-3.9,5-8.4,6.3-13.1c1.8-6.1,2.6-12.2,2.5-18.2c0-0.6-0.1-1.2,0.6-1.8c3.6-3,7.4-5.6,11.5-7.6c0.9-0.5,1.2-0.2,1.3,0.7
	c0.3,1.8,0.9,3.5,2,4.9c1.1,1.3,2.6,1.9,4.5,1.4c1.8-0.4,3.2-1.5,4.5-2.8c1.9-1.8,3.2-4.1,4.7-6.7c0,2.1,0,3.9-0.1,5.7
	c-0.1,1.5-0.6,2.4-1.7,3.5c-4.5,4.5-8.7,9.4-11.5,15.1c-2.1,4.1-3.2,8.3-2.8,12.6c0.5,5.2,4.7,6.9,9.3,3.7c2.9-2,4.8-4.9,6.4-7.9
	c4.4-8.3,6.2-17.1,7.2-25.8c0.1-1.1,0.5-1.8,1.3-2.5c5.9-5.2,12.2-9.7,18.8-13.5C349.5,6.4,350.2,6.1,349.9,5.3"/>
</svg>
